<svg width="1000" height="212" viewBox="0 0 1000 212" fill="none" xmlns="http://www.w3.org/2000/svg">
<path d="M934.548 167.221C924.969 167.221 916.159 165.675 908.118 162.584C900.077 159.382 893.159 155.02 887.365 149.5C881.689 143.979 877.195 137.465 873.884 129.957C870.692 122.448 869.095 114.333 869.095 105.61C869.095 96.8878 870.692 88.7725 873.884 81.2644C877.195 73.7563 881.689 67.2419 887.365 61.7213C893.159 56.2006 900.077 51.8945 908.118 48.803C916.159 45.601 924.969 44 934.548 44C944.126 44 952.936 45.601 960.977 48.803C969.018 51.8945 975.877 56.2006 981.553 61.7213C987.347 67.2419 991.841 73.7563 995.033 81.2644C998.344 88.7725 1000 96.8878 1000 105.61C1000 114.333 998.344 122.448 995.033 129.957C991.841 137.465 987.347 143.979 981.553 149.5C975.877 155.02 969.018 159.382 960.977 162.584C952.936 165.675 944.126 167.221 934.548 167.221ZM934.548 152.315C941.761 152.315 948.265 151.101 954.059 148.672C959.854 146.132 964.82 142.764 968.959 138.569C973.098 134.373 976.291 129.46 978.537 123.829C980.784 118.087 981.907 112.014 981.907 105.61C981.907 99.2065 980.784 93.189 978.537 87.5579C976.291 81.8164 973.098 76.8479 968.959 72.6522C964.82 68.4565 959.854 65.1441 954.059 62.715C948.265 60.1755 941.761 58.9058 934.548 58.9058C927.334 58.9058 920.83 60.1755 915.036 62.715C909.242 65.1441 904.275 68.4565 900.136 72.6522C895.997 76.8479 892.805 81.8164 890.558 87.5579C888.311 93.189 887.188 99.2065 887.188 105.61C887.188 112.014 888.311 118.087 890.558 123.829C892.805 129.46 895.997 134.373 900.136 138.569C904.275 142.764 909.242 146.132 915.036 148.672C920.83 151.101 927.334 152.315 934.548 152.315Z" fill="white"/>
<path d="M791.386 46.981H806.818L860.563 164.24H840.697L828.103 135.256H768.327L755.91 164.24H736.044L791.386 46.981ZM821.895 121.344L798.481 67.5178H798.126L774.358 121.344H821.895Z" fill="white"/>
<path d="M617.695 46.981H661.508C670.376 46.981 678.122 47.9195 684.744 49.7965C691.484 51.6735 697.279 54.213 702.127 57.415C707.094 60.5065 711.173 64.095 714.366 68.1802C717.677 72.2655 720.279 76.4612 722.171 80.7673C724.063 85.0734 725.423 89.3795 726.25 93.6856C727.078 97.9917 727.492 101.967 727.492 105.61C727.492 113.118 726.014 120.406 723.058 127.472C720.101 134.428 715.726 140.666 709.932 146.187C704.137 151.597 696.924 155.959 688.292 159.271C679.778 162.583 669.903 164.24 658.67 164.24H617.695V46.981ZM634.724 149.334H656.186C663.4 149.334 670.199 148.45 676.585 146.684C683.089 144.807 688.765 142.047 693.613 138.403C698.461 134.759 702.304 130.232 705.143 124.822C707.981 119.301 709.4 112.898 709.4 105.61C709.4 101.856 708.749 97.4949 707.448 92.5263C706.148 87.4473 703.664 82.6443 699.999 78.1174C696.451 73.5905 691.484 69.7812 685.099 66.6897C678.713 63.4877 670.436 61.8867 660.266 61.8867H634.724V149.334Z" fill="white"/>
<path d="M541.546 114.222L494.009 46.981H515.826L550.06 98.4886L585.358 46.981H606.112L558.574 114.222V164.24H541.546V114.222Z" fill="white"/>
<path d="M396.906 46.981H413.934V97.6605H415.353L470.872 46.981H494.641L433.978 101.139L498.721 164.24H473.888L415.353 105.61H413.934V164.24H396.906V46.981Z" fill="white"/>
<path d="M302.069 139.728C305.143 144.034 309.045 147.236 313.775 149.334C318.624 151.321 323.59 152.315 328.675 152.315C331.513 152.315 334.41 151.929 337.367 151.156C340.323 150.273 342.984 149.003 345.349 147.347C347.832 145.69 349.842 143.648 351.38 141.219C352.917 138.79 353.685 135.974 353.685 132.772C353.685 128.245 352.148 124.822 349.074 122.504C345.999 120.075 342.156 118.087 337.544 116.541C333.05 114.885 328.084 113.339 322.644 111.904C317.323 110.358 312.356 108.26 307.745 105.61C303.251 102.961 299.467 99.4273 296.392 95.0108C293.318 90.4839 291.781 84.4112 291.781 76.7927C291.781 73.3699 292.549 69.7262 294.087 65.8618C295.742 61.9973 298.284 58.4641 301.714 55.2621C305.143 52.0601 309.518 49.4102 314.84 47.3124C320.279 45.1041 326.783 44 334.351 44C341.21 44 347.773 44.8833 354.04 46.6499C360.308 48.4165 365.806 52.0049 370.536 57.4152L356.701 69.1742C354.572 66.0826 351.557 63.5983 347.655 61.7213C343.752 59.8443 339.318 58.9058 334.351 58.9058C329.621 58.9058 325.66 59.513 322.467 60.7276C319.392 61.8317 316.909 63.3223 315.017 65.1993C313.125 66.9659 311.765 68.8981 310.937 70.996C310.228 73.0938 309.873 75.0261 309.873 76.7927C309.873 81.7612 311.41 85.5705 314.485 88.2204C317.559 90.8703 321.344 93.0234 325.837 94.6796C330.449 96.3358 335.416 97.8263 340.737 99.1513C346.176 100.476 351.143 102.353 355.637 104.782C360.248 107.101 364.092 110.303 367.166 114.388C370.241 118.363 371.778 123.884 371.778 130.95C371.778 136.581 370.595 141.66 368.23 146.187C365.984 150.714 362.909 154.523 359.007 157.615C355.104 160.707 350.493 163.08 345.171 164.737C339.85 166.393 334.174 167.221 328.143 167.221C320.102 167.221 312.475 165.896 305.261 163.246C298.048 160.596 292.313 156.511 288.056 150.99L302.069 139.728Z" fill="white"/>
<g clip-path="url(#clip0_355_3)">
<path d="M105.861 198.551C157.052 198.551 198.551 157.052 198.551 105.861C198.551 54.6704 157.052 13.1719 105.861 13.1719C54.6704 13.1719 13.1719 54.6704 13.1719 105.861C13.1719 157.052 54.6704 198.551 105.861 198.551Z" fill="white"/>
<path d="M105.812 1.12465e-05C84.873 1.34699e-05 64.4039 6.20991 46.9941 17.8442C29.5842 29.4786 16.0157 46.0148 8.00477 65.3613C-0.00617898 84.7077 -2.09975 105.995 1.98888 126.532C6.07751 147.068 16.1647 165.931 30.9745 180.734C45.7844 195.537 64.6516 205.615 85.1899 209.694C105.728 213.773 127.015 211.67 146.358 203.65C165.7 195.63 182.23 182.054 193.857 164.639C205.483 147.224 211.683 126.752 211.674 105.812C211.674 91.9129 208.935 78.1495 203.615 65.3086C198.294 52.4676 190.495 40.8007 180.665 30.9745C170.834 21.1483 159.163 13.3553 146.32 8.04055C133.477 2.72585 119.712 -0.00639705 105.812 1.12465e-05ZM116.399 156.645C114.398 167.866 107.959 179.428 96.446 182.891C87.2979 185.293 77.6142 184.625 68.883 180.989C53.613 174.044 41.1339 162.15 33.4658 147.23C25.1957 132.739 21.4415 116.109 22.6845 99.4706C23.8796 83.5556 29.5527 68.3032 39.0483 55.4756C48.5439 42.6479 61.4746 32.7682 76.3469 26.9776L74.737 29.6119C68.1361 41.2015 65.2819 54.5492 66.5658 67.8247C67.8497 81.1003 73.2088 93.6538 81.9083 103.764C86.0933 108.609 91.0358 112.744 96.5435 116.008C99.139 117.648 101.647 119.423 104.056 121.326C109.016 125.624 112.765 131.146 114.931 137.342C117.096 143.538 117.602 150.193 116.399 156.645ZM180.208 143.718C175.238 153.62 168.357 162.44 159.963 169.671C152.618 175.956 144.231 180.909 135.18 184.306C135.763 183.473 136.3 182.61 136.79 181.72C143.419 170.139 146.29 156.786 145.005 143.503C143.721 130.221 138.344 117.665 129.619 107.569C125.443 102.701 120.5 98.5478 114.984 95.2751C112.39 93.6567 109.897 91.8809 107.52 89.9577C102.601 85.6623 98.8854 80.1603 96.7384 73.993C94.5914 67.8257 94.0871 61.2058 95.2751 54.7845C97.2265 43.5154 103.715 32.0023 115.228 28.5387C124.357 26.1109 134.034 26.78 142.742 30.4412C158.056 37.3374 170.565 49.244 178.208 64.1997C185.035 76.2565 188.789 89.8087 189.137 103.66C189.486 117.511 186.42 131.235 180.208 143.62V143.718Z" fill="#D61719"/>
</g>
<defs>
<clipPath id="clip0_355_3">
<rect width="211.674" height="211.674" fill="white"/>
</clipPath>
</defs>
</svg>
